<?xml version="1.0" encoding="UTF-8"?>
<svg viewBox="0 0 400 200" xmlns="http://www.w3.org/2000/svg">
  <path d="m307.95 40.804c-3.439 0.453-6.131 2.75-7.17 6.12l-0.223 0.726-0.031 9.75c-0.026 8.651-0.012 9.84 0.131 10.55 0.637 3.159 3.135 5.741 6.346 6.56 0.826 0.21 81.374 0.21 82.2 0 3.211-0.819 5.709-3.401 6.346-6.56 0.143-0.71 0.157-1.899 0.131-10.55l-0.031-9.75-0.223-0.726c-0.919-2.979-3.152-5.147-6.123-5.944l-0.85-0.228-39.95-0.014c-21.972-7e-3 -40.221 0.022-40.553 0.066m-194.75 5.006c-3.903 0.38-7.476 2.703-9.388 6.101-0.974 1.732-1.807 4.429-1.814 5.877-3e-3 0.726-3.261 18.874-3.334 18.58-0.161-0.64-0.871-2.107-1.421-2.934-4.315-6.495-13.459-7.336-18.936-1.741-0.354 0.361-0.614 0.577-0.577 0.478 0.272-0.731 0.148-3.29-0.232-4.78-2.338-9.154-13.787-12.261-20.439-5.547-2.234 2.256-2.885 3.85-3.884 9.521-0.343 1.944-0.654 3.535-0.692 3.535s-0.331-0.156-0.651-0.347c-4.867-2.899-11.315-2.064-15.389 1.994-1.008 1.003-24.804 31.802-25.99 33.637-3.253 5.035-2.514 11.818 1.746 16.016 0.692 0.682 31.656 24.587 33.339 25.738 8.209 5.617 18.812 0.59 19.904-9.438 0.113-1.037 3.475-20.464 3.614-20.883 0.024-0.073 0.312 0.4 0.641 1.05 3.789 7.51 13.582 9.02 19.537 3.012 0.596-0.602 1.06-1.012 1.03-0.911-0.569 1.93-0.787 5.573-0.432 7.232 2.23 10.414 15.616 13.306 21.804 4.711 1.51-2.097 1.766-2.945 2.97-9.822l0.326-1.861 0.716 0.424c4.97 2.938 11.784 1.958 15.686-2.257 0.565-0.61 24.451-31.596 25.51-33.092 3.695-5.221 2.628-12.825-2.394-17.065-1.029-0.868-31.756-24.459-32.573-25.008-2.002-1.344-6.382-2.648-7.777-2.315-0.028 7e-3 -0.432 0.049-0.9 0.095m205.63 5.291c3.804 0.734 5.866 2.863 5.18 5.347l-0.106 0.385 0.643 0.589c2.958 2.711 0.963 6.387-3.922 7.229-1.391 0.239-9.464 0.176-10.128-0.08-0.614-0.236-1.391-0.847-1.615-1.269-0.249-0.47-0.289-10.413-0.044-10.882 0.294-0.56 1.04-1.116 1.819-1.356 0.83-0.255 6.801-0.228 8.173 0.037m13.117 0.133c0.642 0.296 1.179 0.749 1.409 1.186 0.114 0.219 0.141 0.989 0.141 4.075v3.805h3.879c4.37 0 4.678 0.037 5.618 0.677 1.704 1.161 1.082 3.108-1.175 3.678-0.96 0.242-10.386 0.162-11.272-0.095-1.607-0.468-2.907-1.396-3.421-2.441l-0.279-0.569-0.031-4.25c-0.033-4.523-0.014-4.753 0.444-5.297 0.903-1.073 3.21-1.452 4.687-0.769m25.433-0.233c5.548 0.721 8.987 4.044 8.176 7.899-1.699 8.077-19.652 7.684-20.553-0.45-0.532-4.798 5.382-8.357 12.377-7.449m24.614 0.057c2.157 0.641 2.671 2.494 1.008 3.629-0.849 0.579-1.176 0.633-4.305 0.714-3.325 0.085-3.9 0.206-4.619 0.965-0.809 0.856-0.651 2.555 0.296 3.18 0.798 0.527 2.211 0.825 3.313 0.699l0.66-0.076-0.8-0.12c-3.149-0.476-3.881-2.9-1.25-4.14l0.55-0.259h4.25 4.25l0.555 0.261c1.481 0.695 1.886 1.631 1.442 3.335-1.952 7.495-18.831 7.269-20.389-0.273-0.837-4.051 2.34-7.1 8.342-8.008 0.856-0.129 6.197-0.055 6.697 0.093m-66.597 4.442c0 0.06 0.391 0.099 0.975 0.098 0.666-1e-3 0.928-0.032 0.825-0.098-0.201-0.13-1.8-0.13-1.8 0m38.439 0.063c-1.763 0.418-2.594 1.776-1.951 3.191 0.893 1.967 5.87 2.042 6.808 0.103 1.094-2.258-1.58-4.072-4.857-3.294m-38.439 4.637c0 0.063 0.7 0.1 1.9 0.1s1.9-0.037 1.9-0.1-0.7-0.1-1.9-0.1-1.9 0.037-1.9 0.1m-46.863 19.647c-2.007 0.445-3.731 1.766-4.618 3.539-0.782 1.562-0.728-0.198-0.697 22.914l0.029 20.65 0.23 0.746c2.218 7.166 11.779 8.253 15.427 1.754 1.014-1.806 1.092-2.533 1.092-10.184v-6.042l2.875-0.051c3.878-0.068 5.279-0.336 7.875-1.504 10.57-4.756 13.093-18.83 4.852-27.071-2.46-2.46-5.374-3.965-9.052-4.674-1.137-0.219-17.066-0.287-18.013-0.077m-142.91 3.394c1.416 1.086 2.575 1.991 2.575 2.012s-1.822 2.407-4.05 5.303c-2.228 2.895-4.05 5.239-4.05 5.209 0-0.083 2.387-13.627 2.511-14.248 0.096-0.483 0.122-0.519 0.273-0.391 0.091 0.078 1.325 1.03 2.741 2.115m30.263 13.308c-3.225 0.613-5.697 2.866-6.614 6.028l-0.224 0.773v11.75 11.75l0.226 0.78c0.855 2.95 3.056 5.102 6.028 5.894l0.846 0.226h9.55 9.55l0.85-0.226c3.092-0.823 5.24-2.953 6.123-6.074l0.227-0.8v-11.55-11.55l-0.227-0.8c-2.175-7.683-12.459-8.6-15.779-1.407-0.318 0.689-0.594 1.6-0.668 2.207-0.035 0.286-0.04 0.282-0.112-0.1-0.887-4.665-5.268-7.758-9.776-6.901m34.645-8e-3c-3.26 0.623-5.825 2.98-6.703 6.159-0.281 1.017-0.277 23.806 4e-3 24.8 2.361 8.347 13.977 8.311 16.283-0.05 0.212-0.768 0.223-1.009 0.259-6.019l0.038-5.22 6.718-0.035c6.557-0.034 6.737-0.04 7.518-0.255 8.571-2.357 8.22-14.571-0.471-16.362-0.664-0.137-1.807-0.159-8.254-0.159h-7.483l-0.446-0.459c-1.836-1.891-4.927-2.885-7.463-2.4m59.267 3.414c-2.567 0.551-3.729 1.451-6.5 5.033l-0.95 1.228-1.394-1.483c-3.084-3.28-3.681-3.752-5.588-4.422-5.529-1.943-11.556 2.757-11.016 8.589 0.245 2.642 0.805 3.577 4.529 7.562 1.468 1.571 2.729 2.94 2.802 3.042 0.121 0.166-0.169 0.572-2.98 4.165-4.158 5.316-4.354 5.707-4.352 8.681 7e-3 7.824 9.829 11.338 14.77 5.284 3.084-3.779 19.451-24.916 19.77-25.533 3.241-6.261-2.261-13.611-9.091-12.146m-203.71 11.595c-0.71 4.015-1.301 7.333-1.315 7.374s-1.266-0.88-2.782-2.045l-2.758-2.119 1.658-2.158c5.041-6.563 6.453-8.39 6.468-8.372 0.01 0.011-0.562 3.305-1.271 7.32" fill-rule="evenodd" />
</svg>