<svg id="svg" xmlns="http://www.w3.org/2000/svg" xmlns:xlink="http://www.w3.org/1999/xlink" width="400" height="200" viewBox="0, 0, 400,200"><g id="svgg"><path id="path0" d="M307.947 40.804 C 304.508 41.257,301.816 43.554,300.777 46.924 L 300.554 47.650 300.523 57.400 C 300.497 66.051,300.511 67.240,300.654 67.950 C 301.291 71.109,303.789 73.691,307.000 74.510 C 307.826 74.720,388.374 74.720,389.200 74.510 C 392.411 73.691,394.909 71.109,395.546 67.950 C 395.689 67.240,395.703 66.051,395.677 57.400 L 395.646 47.650 395.423 46.924 C 394.504 43.945,392.271 41.777,389.300 40.980 L 388.450 40.752 348.500 40.738 C 326.528 40.731,308.279 40.760,307.947 40.804 M113.200 45.810 C 109.297 46.190,105.724 48.513,103.812 51.911 C 102.838 53.643,102.005 56.340,101.998 57.788 C 101.995 58.514,98.737 76.662,98.664 76.368 C 98.503 75.728,97.793 74.261,97.243 73.434 C 92.928 66.939,83.784 66.098,78.307 71.693 C 77.953 72.054,77.693 72.270,77.730 72.171 C 78.002 71.440,77.878 68.881,77.498 67.391 C 75.160 58.237,63.711 55.130,57.059 61.844 C 54.825 64.100,54.174 65.694,53.175 71.365 C 52.832 73.309,52.521 74.900,52.483 74.900 C 52.445 74.900,52.152 74.744,51.832 74.553 C 46.965 71.654,40.517 72.489,36.443 76.547 C 35.435 77.550,11.639 108.349,10.453 110.184 C 7.200 115.219,7.939 122.002,12.199 126.200 C 12.891 126.882,43.855 150.787,45.538 151.938 C 53.747 157.555,64.350 152.528,65.442 142.500 C 65.555 141.463,68.917 122.036,69.056 121.617 C 69.080 121.544,69.368 122.017,69.697 122.667 C 73.486 130.177,83.279 131.687,89.234 125.679 C 89.830 125.077,90.294 124.667,90.264 124.768 C 89.695 126.698,89.477 130.341,89.832 132.000 C 92.062 142.414,105.448 145.306,111.636 136.711 C 113.146 134.614,113.402 133.766,114.606 126.889 L 114.932 125.028 115.648 125.452 C 120.618 128.390,127.432 127.410,131.334 123.195 C 131.899 122.585,155.785 91.599,156.844 90.103 C 160.539 84.882,159.472 77.278,154.450 73.038 C 153.421 72.170,122.694 48.579,121.877 48.030 C 119.875 46.686,115.495 45.382,114.100 45.715 C 114.072 45.722,113.668 45.764,113.200 45.810 M321.515 51.095 C 327.119 52.058,330.138 55.205,327.050 56.865 C 325.459 57.720,323.576 57.540,322.200 56.400 C 320.381 54.894,316.507 55.124,315.631 56.791 C 314.565 58.822,316.778 60.655,319.769 60.219 C 321.099 60.025,321.165 59.996,322.638 58.946 C 325.394 56.980,329.870 59.505,327.669 61.784 C 323.288 66.321,312.017 65.499,309.333 60.446 C 306.420 54.961,313.296 49.683,321.515 51.095 M342.900 51.181 C 348.184 52.333,350.929 55.475,349.947 59.246 C 348.011 66.679,331.389 66.559,329.600 59.099 C 328.666 55.206,331.944 51.863,337.535 51.007 C 338.618 50.842,341.817 50.945,342.900 51.181 M361.550 51.185 C 367.348 52.451,370.144 55.418,369.147 59.246 C 368.183 62.945,364.155 64.794,357.046 64.798 C 353.234 64.800,352.530 64.639,351.658 63.562 L 351.350 63.182 351.321 58.016 C 351.306 55.175,351.318 52.750,351.348 52.627 C 351.483 52.077,352.389 51.336,353.262 51.059 C 354.085 50.799,360.208 50.892,361.550 51.185 M385.750 51.137 C 388.079 52.221,387.923 54.355,385.455 55.171 C 385.026 55.313,384.348 55.344,380.975 55.376 C 378.789 55.397,377.000 55.454,377.000 55.502 C 377.000 55.550,378.849 55.603,381.125 55.620 L 385.250 55.650 385.850 55.930 C 387.625 56.760,387.937 58.259,386.554 59.314 C 385.615 60.029,385.528 60.041,381.025 60.078 C 378.712 60.097,377.000 60.149,377.000 60.201 C 377.000 60.253,378.730 60.304,381.075 60.321 C 385.659 60.354,385.760 60.369,386.686 61.161 C 387.972 62.262,387.528 63.788,385.708 64.524 C 385.041 64.794,377.347 64.928,375.752 64.698 C 371.403 64.069,369.084 61.072,370.824 58.329 L 371.121 57.860 370.735 57.155 C 369.296 54.522,371.247 51.854,375.200 51.047 C 376.328 50.817,385.225 50.893,385.750 51.137 M338.200 55.606 C 336.535 56.039,335.754 57.346,336.335 58.728 C 337.219 60.832,342.445 60.771,343.256 58.648 C 344.114 56.402,341.405 54.773,338.200 55.606 M358.000 57.864 L 358.000 60.328 359.075 60.275 C 361.746 60.141,363.191 58.775,362.462 57.072 C 362.073 56.161,360.294 55.400,358.554 55.400 L 358.000 55.400 358.000 57.864 M268.537 79.847 C 266.530 80.292,264.806 81.613,263.919 83.386 C 263.137 84.948,263.191 83.188,263.222 106.300 L 263.251 126.950 263.481 127.696 C 265.699 134.862,275.260 135.949,278.908 129.450 C 279.922 127.644,280.000 126.917,280.000 119.266 L 280.000 113.224 282.875 113.173 C 286.753 113.105,288.154 112.837,290.750 111.669 C 301.320 106.913,303.843 92.839,295.602 84.598 C 293.142 82.138,290.228 80.633,286.550 79.924 C 285.413 79.705,269.484 79.637,268.537 79.847 M125.625 83.241 C 127.041 84.327,128.200 85.232,128.200 85.253 C 128.200 85.274,126.378 87.660,124.150 90.556 C 121.922 93.451,120.100 95.795,120.100 95.765 C 120.100 95.682,122.487 82.138,122.611 81.517 C 122.707 81.034,122.733 80.998,122.884 81.126 C 122.975 81.204,124.209 82.156,125.625 83.241 M155.888 96.549 C 152.663 97.162,150.191 99.415,149.274 102.577 L 149.050 103.350 149.050 115.100 L 149.050 126.850 149.276 127.630 C 150.131 130.580,152.332 132.732,155.304 133.524 L 156.150 133.750 165.700 133.750 L 175.250 133.750 176.100 133.524 C 179.192 132.701,181.340 130.571,182.223 127.450 L 182.450 126.650 182.450 115.100 L 182.450 103.550 182.223 102.750 C 180.048 95.067,169.764 94.150,166.444 101.343 C 166.126 102.032,165.850 102.943,165.776 103.550 C 165.741 103.836,165.736 103.832,165.664 103.450 C 164.777 98.785,160.396 95.692,155.888 96.549 M190.533 96.541 C 187.273 97.164,184.708 99.521,183.830 102.700 C 183.549 103.717,183.553 126.506,183.834 127.500 C 186.195 135.847,197.811 135.811,200.117 127.450 C 200.329 126.682,200.340 126.441,200.376 121.431 L 200.414 116.211 207.132 116.176 C 213.689 116.142,213.869 116.136,214.650 115.921 C 223.221 113.564,222.870 101.350,214.179 99.559 C 213.515 99.422,212.372 99.400,205.925 99.400 L 198.442 99.400 197.996 98.941 C 196.160 97.050,193.069 96.056,190.533 96.541 M249.800 99.955 C 247.233 100.506,246.071 101.406,243.300 104.988 L 242.350 106.216 240.956 104.733 C 237.872 101.453,237.275 100.981,235.368 100.311 C 229.839 98.368,223.812 103.068,224.352 108.900 C 224.597 111.542,225.157 112.477,228.881 116.462 C 230.349 118.033,231.610 119.402,231.683 119.504 C 231.804 119.670,231.514 120.076,228.703 123.669 C 224.545 128.985,224.349 129.376,224.351 132.350 C 224.358 140.174,234.180 143.688,239.121 137.634 C 242.205 133.855,258.572 112.718,258.891 112.101 C 262.132 105.840,256.630 98.490,249.800 99.955 M46.090 111.550 C 45.380 115.565,44.789 118.883,44.775 118.924 C 44.761 118.965,43.509 118.044,41.993 116.879 L 39.235 114.760 40.893 112.602 C 45.934 106.039,47.346 104.212,47.361 104.230 C 47.371 104.241,46.799 107.535,46.090 111.550 " stroke="none" fill="#000000" fill-rule="evenodd"></path></g></svg>