<svg xmlns="http://www.w3.org/2000/svg" viewBox="0 0 400 200"><defs/><path fill-rule="evenodd" d="M309 41c-4 0-7 3-8 6v21c1 3 3 6 7 7h82c3-1 6-4 6-7V47c-1-3-3-5-6-6h-81m-195 5c-4 0-8 3-10 6l-1 6a476 476 0 01-5 15c-4-6-14-7-19-1h-1v-5c-2-9-14-12-20-5-3 2-3 4-4 9l-1 4h-1c-4-3-11-3-15 2l-26 33c-3 5-2 12 2 16l33 26c8 6 19 1 20-9a1142 1142 0 014-20c4 7 14 9 20 3l1-1-1 7c3 10 16 13 22 5 2-2 2-3 3-10l1-2c5 3 12 2 16-2l25-33c4-5 3-13-2-17l-33-25c-2-1-6-3-7-2h-1m211 5l1 6v3h4l5 1c3 1 2 3 0 4h-12l-3-3v-4-6c1-1 3-2 5-1m18 0l3 2 2 2 3-2 4-2 3 1v12c-2 1-5 1-6-1v-4h-7l-1 2v3h-6v-6-6l5-1m33 0c2 1 2 3 1 4h-6a46 46 0 00-2 1l6 1c3 1 3 5 1 6-2 2-4 2-10 2h-4l-1-1c-2 0-2-2 0-3l5-1h3-3c-8-1-9-8-1-9h11M269 80c-2 0-4 2-4 3l-1 23v22c2 7 12 8 16 1l1-10v-6h2l8-1a17 17 0 00-4-32h-18m-143 3l3 2a481 481 0 01-8 11 2425 2425 0 012-15l3 2m30 14c-3 0-5 2-6 6v25c1 3 3 5 6 6h21c3-1 5-3 6-7v-24c-2-8-13-9-16-2l-1 3v-1c-1-4-5-7-10-6m35 0c-3 0-6 3-7 6v25c3 8 14 8 17-1v-11h14c9-2 8-15 0-16l-8-1h-8c-2-2-5-3-8-2m59 3c-2 1-3 1-6 5l-1 1-1-1-6-5c-6-2-12 3-11 9 0 3 1 3 4 7l3 4-3 4c-4 5-4 5-4 8 0 8 10 12 15 6l19-26c4-6-2-14-9-12M47 112l-2 7-2-2-3-2 1-2 7-9-1 8"/></svg>