<svg id="svg" xmlns="http://www.w3.org/2000/svg" xmlns:xlink="http://www.w3.org/1999/xlink" width="400" height="200" viewBox="0, 0, 400,200"><g id="svgg"><path id="path0" d="M308.547 40.804 C 305.108 41.257,302.416 43.554,301.377 46.924 L 301.154 47.650 301.123 57.400 C 301.097 66.051,301.111 67.240,301.254 67.950 C 301.891 71.109,304.389 73.691,307.600 74.510 C 308.426 74.720,388.974 74.720,389.800 74.510 C 393.011 73.691,395.509 71.109,396.146 67.950 C 396.289 67.240,396.303 66.051,396.277 57.400 L 396.246 47.650 396.023 46.924 C 395.104 43.945,392.871 41.777,389.900 40.980 L 389.050 40.752 349.100 40.738 C 327.128 40.731,308.879 40.760,308.547 40.804 M113.800 45.810 C 109.897 46.190,106.324 48.513,104.412 51.911 C 103.438 53.643,102.605 56.340,102.598 57.788 C 102.595 58.514,99.337 76.662,99.264 76.368 C 99.103 75.728,98.393 74.261,97.843 73.434 C 93.528 66.939,84.384 66.098,78.907 71.693 C 78.553 72.054,78.293 72.270,78.330 72.171 C 78.602 71.440,78.478 68.881,78.098 67.391 C 75.760 58.237,64.311 55.130,57.659 61.844 C 55.425 64.100,54.774 65.694,53.775 71.365 C 53.432 73.309,53.121 74.900,53.083 74.900 C 53.045 74.900,52.752 74.744,52.432 74.553 C 47.565 71.654,41.117 72.489,37.043 76.547 C 36.035 77.550,12.239 108.349,11.053 110.184 C 7.800 115.219,8.539 122.002,12.799 126.200 C 13.491 126.882,44.455 150.787,46.138 151.938 C 54.347 157.555,64.950 152.528,66.042 142.500 C 66.155 141.463,69.517 122.036,69.656 121.617 C 69.680 121.544,69.968 122.017,70.297 122.667 C 74.086 130.177,83.879 131.687,89.834 125.679 C 90.430 125.077,90.894 124.667,90.864 124.768 C 90.295 126.698,90.077 130.341,90.432 132.000 C 92.662 142.414,106.048 145.306,112.236 136.711 C 113.746 134.614,114.002 133.766,115.206 126.889 L 115.532 125.028 116.248 125.452 C 121.218 128.390,128.032 127.410,131.934 123.195 C 132.499 122.585,156.385 91.599,157.444 90.103 C 161.139 84.882,160.072 77.278,155.050 73.038 C 154.021 72.170,123.294 48.579,122.477 48.030 C 120.475 46.686,116.095 45.382,114.700 45.715 C 114.672 45.722,114.267 45.764,113.800 45.810 M324.816 51.236 C 326.340 51.963,326.400 52.171,326.400 56.739 L 326.400 60.290 330.475 60.320 C 334.448 60.350,334.564 60.357,335.115 60.579 C 337.556 61.564,337.265 63.983,334.624 64.653 C 333.679 64.893,324.342 64.823,323.450 64.569 C 321.790 64.096,320.432 63.118,319.920 62.027 L 319.650 61.450 319.617 57.550 C 319.579 53.174,319.605 52.787,319.968 52.226 C 320.764 50.999,323.252 50.491,324.816 51.236 M342.750 51.147 C 342.970 51.241,344.263 52.065,345.624 52.978 L 348.099 54.638 350.574 52.980 C 353.499 51.022,353.558 50.993,354.806 50.926 C 356.377 50.842,357.659 51.369,358.206 52.324 L 358.450 52.750 358.450 57.850 C 358.450 63.581,358.492 63.249,357.686 63.939 C 356.089 65.306,352.828 64.925,351.923 63.265 C 351.779 63.001,351.746 62.598,351.717 60.778 L 351.683 58.605 350.919 59.121 C 349.019 60.403,347.250 60.429,345.419 59.201 L 344.550 58.618 344.496 60.784 C 344.436 63.188,344.416 63.275,343.778 63.863 C 342.318 65.209,339.364 65.051,338.158 63.562 L 337.850 63.182 337.822 57.941 C 337.792 52.177,337.765 52.454,338.418 51.810 C 339.291 50.949,341.500 50.611,342.750 51.147 M375.604 51.060 C 377.732 51.692,378.273 53.604,376.632 54.691 C 375.678 55.323,375.581 55.335,370.850 55.383 C 368.485 55.407,366.663 55.461,366.800 55.504 C 366.938 55.546,367.950 55.585,369.050 55.590 C 371.926 55.605,373.610 55.930,375.247 56.784 C 378.204 58.328,378.419 61.610,375.676 63.331 C 373.634 64.613,372.236 64.827,366.200 64.782 L 361.850 64.750 361.254 64.471 C 359.310 63.561,359.028 62.050,360.603 60.977 C 361.550 60.333,361.831 60.300,366.421 60.300 C 369.074 60.300,370.500 60.265,370.500 60.200 C 370.500 60.137,369.808 60.100,368.625 60.099 C 367.594 60.099,366.345 60.053,365.850 59.996 C 357.963 59.104,357.348 52.441,365.023 51.050 C 366.194 50.838,374.883 50.846,375.604 51.060 M269.137 79.847 C 267.130 80.292,265.406 81.613,264.519 83.386 C 263.737 84.948,263.791 83.188,263.822 106.300 L 263.851 126.950 264.081 127.696 C 266.299 134.862,275.860 135.949,279.508 129.450 C 280.522 127.644,280.600 126.917,280.600 119.266 L 280.600 113.224 283.475 113.173 C 287.353 113.105,288.754 112.837,291.350 111.669 C 301.920 106.913,304.443 92.839,296.202 84.598 C 293.742 82.138,290.828 80.633,287.150 79.924 C 286.013 79.705,270.084 79.637,269.137 79.847 M126.225 83.241 C 127.641 84.327,128.800 85.232,128.800 85.253 C 128.800 85.274,126.978 87.660,124.750 90.556 C 122.522 93.451,120.700 95.795,120.700 95.765 C 120.700 95.682,123.087 82.138,123.211 81.517 C 123.307 81.034,123.333 80.998,123.484 81.126 C 123.575 81.204,124.809 82.156,126.225 83.241 M156.488 96.549 C 153.263 97.162,150.791 99.415,149.874 102.577 L 149.650 103.350 149.650 115.100 L 149.650 126.850 149.876 127.630 C 150.731 130.580,152.932 132.732,155.904 133.524 L 156.750 133.750 166.300 133.750 L 175.850 133.750 176.700 133.524 C 179.792 132.701,181.940 130.571,182.823 127.450 L 183.050 126.650 183.050 115.100 L 183.050 103.550 182.823 102.750 C 180.648 95.067,170.364 94.150,167.044 101.343 C 166.726 102.032,166.450 102.943,166.376 103.550 C 166.341 103.836,166.336 103.832,166.264 103.450 C 165.377 98.785,160.996 95.692,156.488 96.549 M191.133 96.541 C 187.873 97.164,185.308 99.521,184.430 102.700 C 184.149 103.717,184.153 126.506,184.434 127.500 C 186.795 135.847,198.411 135.811,200.717 127.450 C 200.929 126.682,200.940 126.441,200.976 121.431 L 201.014 116.211 207.732 116.176 C 214.289 116.142,214.469 116.136,215.250 115.921 C 223.821 113.564,223.470 101.350,214.779 99.559 C 214.115 99.422,212.972 99.400,206.525 99.400 L 199.042 99.400 198.596 98.941 C 196.760 97.050,193.669 96.056,191.133 96.541 M250.400 99.955 C 247.833 100.506,246.671 101.406,243.900 104.988 L 242.950 106.216 241.556 104.733 C 238.472 101.453,237.875 100.981,235.968 100.311 C 230.439 98.368,224.412 103.068,224.952 108.900 C 225.197 111.542,225.757 112.477,229.481 116.462 C 230.949 118.033,232.210 119.402,232.283 119.504 C 232.404 119.670,232.114 120.076,229.303 123.669 C 225.145 128.985,224.949 129.376,224.951 132.350 C 224.958 140.174,234.780 143.688,239.721 137.634 C 242.805 133.855,259.172 112.718,259.491 112.101 C 262.732 105.840,257.230 98.490,250.400 99.955 M46.690 111.550 C 45.980 115.565,45.389 118.883,45.375 118.924 C 45.361 118.965,44.109 118.044,42.593 116.879 L 39.835 114.760 41.493 112.602 C 46.534 106.039,47.946 104.212,47.961 104.230 C 47.971 104.241,47.399 107.535,46.690 111.550 " stroke="none" fill="#000000" fill-rule="evenodd"></path></g></svg>