<svg id="svg" version="1.1" xmlns="http://www.w3.org/2000/svg" xmlns:xlink="http://www.w3.org/1999/xlink" width="400" height="200" viewBox="0, 0, 400,200"><g id="svgg"><path id="path1" d="" stroke="none" fill="#080404" fill-rule="evenodd"></path><path id="path2" d="" stroke="none" fill="#080404" fill-rule="evenodd"></path><path id="path3" d="" stroke="none" fill="#080404" fill-rule="evenodd"></path><path id="path4" d="" stroke="none" fill="#080404" fill-rule="evenodd"></path><path id="path0" d="M305.917 40.995 C 302.884 41.552,300.024 44.310,299.344 47.333 C 299.071 48.544,299.115 67.542,299.393 68.583 C 300.223 71.696,302.758 74.093,305.917 74.751 C 307.654 75.113,385.661 75.123,387.551 74.761 C 390.676 74.164,392.850 72.221,394.187 68.833 C 394.629 67.711,394.514 47.844,394.058 46.626 C 393.088 44.037,391.450 42.372,388.798 41.280 L 387.917 40.917 347.250 40.895 C 324.883 40.883,306.283 40.928,305.917 40.995 M111.557 45.846 C 108.820 46.115,106.124 47.483,104.243 49.554 C 102.685 51.272,102.267 52.005,101.187 54.917 C 101.085 55.192,100.808 56.692,100.571 58.250 C 100.334 59.808,100.041 61.646,99.918 62.333 C 99.795 63.021,99.570 64.296,99.417 65.167 C 99.264 66.037,99.039 67.313,98.917 68.000 C 98.795 68.688,98.570 69.962,98.417 70.833 C 98.264 71.704,98.032 73.017,97.903 73.750 C 97.773 74.483,97.620 75.365,97.562 75.709 L 97.456 76.336 96.929 75.124 C 94.452 69.425,87.241 66.385,81.583 68.654 C 79.784 69.376,78.530 70.159,77.361 71.292 C 76.455 72.169,76.466 72.171,76.594 71.203 C 76.918 68.765,75.786 64.973,74.122 62.918 C 67.322 54.521,54.155 57.918,52.328 68.541 C 52.230 69.114,52.039 70.183,51.905 70.917 C 51.771 71.650,51.579 72.813,51.479 73.500 C 51.378 74.188,51.281 74.766,51.264 74.786 C 51.247 74.806,50.712 74.560,50.075 74.239 C 46.771 72.577,42.322 72.382,39.225 73.765 C 38.936 73.894,38.623 74.000,38.530 74.000 C 38.437 74.000,38.336 74.056,38.306 74.125 C 38.275 74.194,37.884 74.438,37.437 74.667 C 36.255 75.272,34.276 77.271,32.404 79.750 C 31.504 80.942,30.723 81.954,30.668 82.000 C 30.612 82.046,30.387 82.346,30.167 82.667 C 29.946 82.987,29.721 83.287,29.665 83.333 C 29.609 83.379,28.710 84.542,27.667 85.917 C 26.623 87.292,25.724 88.454,25.668 88.500 C 25.613 88.546,25.387 88.846,25.167 89.167 C 24.946 89.487,24.721 89.787,24.665 89.833 C 24.609 89.879,23.710 91.042,22.667 92.417 C 21.623 93.792,20.724 94.954,20.668 95.000 C 20.613 95.046,20.387 95.346,20.167 95.667 C 19.946 95.987,19.721 96.287,19.665 96.333 C 19.609 96.379,18.710 97.542,17.667 98.917 C 16.623 100.292,15.724 101.454,15.668 101.500 C 15.613 101.546,15.387 101.846,15.167 102.167 C 14.946 102.487,14.721 102.787,14.665 102.833 C 14.609 102.879,13.710 104.042,12.667 105.417 C 11.623 106.792,10.724 107.954,10.668 108.000 C 10.613 108.046,10.387 108.346,10.167 108.667 C 9.946 108.987,9.720 109.287,9.665 109.333 C 9.382 109.565,8.229 111.710,7.781 112.839 C 6.471 116.138,7.267 122.189,9.289 124.304 C 9.405 124.425,9.500 124.583,9.500 124.655 C 9.500 124.907,11.592 126.965,12.750 127.852 C 13.392 128.344,14.016 128.841,14.137 128.956 C 14.258 129.072,14.408 129.168,14.470 129.169 C 14.532 129.171,14.846 129.395,15.167 129.668 C 15.961 130.342,16.002 130.375,16.667 130.841 C 16.987 131.066,17.287 131.297,17.333 131.354 C 17.379 131.411,18.092 131.970,18.917 132.596 C 19.742 133.223,20.516 133.832,20.637 133.951 C 20.758 134.070,20.908 134.168,20.970 134.170 C 21.032 134.172,21.383 134.436,21.750 134.757 C 22.117 135.079,22.717 135.546,23.083 135.795 C 23.450 136.045,23.787 136.296,23.833 136.353 C 23.879 136.411,24.592 136.969,25.417 137.593 C 26.242 138.218,26.954 138.771,27.000 138.823 C 27.046 138.874,27.346 139.101,27.667 139.326 C 28.331 139.792,28.372 139.824,29.167 140.499 C 29.488 140.772,29.801 140.996,29.863 140.997 C 29.925 140.999,30.075 141.097,30.196 141.216 C 30.318 141.334,31.080 141.936,31.890 142.552 C 32.701 143.169,33.475 143.784,33.610 143.920 C 33.746 144.056,33.909 144.167,33.972 144.167 C 34.035 144.167,34.273 144.338,34.502 144.547 C 34.730 144.757,36.004 145.746,37.333 146.746 C 38.662 147.746,39.884 148.699,40.048 148.865 C 40.212 149.031,40.400 149.168,40.465 149.169 C 40.530 149.171,40.846 149.395,41.167 149.668 C 41.487 149.940,41.825 150.221,41.917 150.292 C 42.393 150.662,43.002 151.111,43.330 151.333 C 43.532 151.471,43.860 151.721,44.057 151.890 C 44.551 152.310,47.040 153.484,47.706 153.611 C 48.005 153.667,48.330 153.776,48.428 153.852 C 49.074 154.354,53.863 154.280,55.476 153.744 C 60.693 152.008,63.530 148.066,64.408 141.333 C 64.546 140.279,64.768 138.817,64.903 138.083 C 65.280 136.028,65.662 133.884,65.912 132.417 C 66.037 131.683,66.257 130.427,66.401 129.625 C 66.544 128.822,66.780 127.510,66.923 126.708 C 67.067 125.906,67.287 124.612,67.413 123.833 C 67.761 121.674,67.792 121.641,68.411 122.799 C 72.309 130.094,81.850 131.663,87.746 125.980 C 88.956 124.814,88.941 124.803,88.582 126.613 C 88.209 128.495,88.312 131.751,88.794 133.250 C 89.153 134.371,89.966 136.054,90.188 136.139 C 90.268 136.169,90.333 136.297,90.333 136.422 C 90.333 136.789,93.003 139.396,93.983 139.986 C 99.631 143.385,107.002 141.805,110.627 136.417 C 112.009 134.362,112.357 133.132,113.402 126.626 C 113.657 125.038,113.649 125.046,114.481 125.571 C 114.854 125.807,115.206 126.000,115.263 126.000 C 115.320 126.000,115.603 126.105,115.891 126.232 C 118.255 127.278,121.435 127.443,124.464 126.677 C 124.857 126.577,125.307 126.426,125.464 126.342 C 125.621 126.257,126.125 126.014,126.583 125.802 C 127.042 125.590,127.454 125.379,127.500 125.333 C 127.546 125.287,127.914 125.024,128.319 124.750 C 129.442 123.987,130.728 122.672,131.661 121.333 C 131.884 121.013,132.113 120.712,132.168 120.667 C 132.224 120.621,133.123 119.458,134.167 118.083 C 135.210 116.708,136.109 115.546,136.165 115.500 C 136.221 115.454,136.446 115.154,136.667 114.833 C 136.887 114.513,137.113 114.212,137.168 114.167 C 137.224 114.121,138.123 112.958,139.167 111.583 C 140.210 110.208,141.109 109.046,141.165 109.000 C 141.221 108.954,141.446 108.654,141.667 108.333 C 141.887 108.013,142.113 107.712,142.168 107.667 C 142.224 107.621,143.123 106.458,144.167 105.083 C 146.863 101.532,147.072 101.260,147.178 101.167 C 147.231 101.121,147.581 100.671,147.958 100.167 C 148.335 99.662,148.960 98.837,149.347 98.333 C 149.734 97.829,150.508 96.817,151.067 96.083 C 151.626 95.350,152.127 94.712,152.180 94.667 C 152.691 94.227,156.052 89.496,156.445 88.663 C 159.269 82.686,157.472 75.756,152.167 72.161 C 151.846 71.944,151.546 71.721,151.500 71.665 C 151.454 71.609,150.292 70.710,148.917 69.666 C 145.388 66.988,145.094 66.761,145.000 66.657 C 144.954 66.606,143.792 65.711,142.417 64.669 C 141.042 63.626,139.722 62.618,139.484 62.428 C 138.777 61.863,138.058 61.309,135.167 59.097 C 133.654 57.939,132.192 56.814,131.917 56.597 C 131.642 56.379,130.179 55.254,128.667 54.097 C 127.154 52.939,125.660 51.788,125.346 51.538 C 118.957 46.448,116.353 45.373,111.557 45.846 M318.379 51.343 C 322.136 52.108,323.931 53.809,323.590 56.282 C 323.482 57.070,323.498 57.110,324.132 57.680 C 326.232 59.564,325.592 62.756,322.879 63.932 C 320.915 64.783,320.517 64.831,315.395 64.832 C 307.977 64.834,308.331 65.178,308.339 57.969 C 308.346 51.999,308.355 51.971,310.334 51.278 C 311.521 50.863,316.208 50.900,318.379 51.343 M341.503 51.266 C 343.250 51.785,343.959 53.067,343.147 54.240 C 342.402 55.314,342.046 55.388,337.290 55.460 C 334.718 55.499,333.034 55.587,333.091 55.679 C 333.145 55.766,334.850 55.833,337.019 55.833 C 342.087 55.833,343.500 56.274,343.500 57.852 C 343.500 59.729,342.572 60.071,337.292 60.137 C 334.931 60.167,333.000 60.255,333.000 60.333 C 333.000 60.411,334.931 60.505,337.292 60.541 C 342.054 60.613,342.415 60.687,343.136 61.740 C 343.848 62.779,343.492 63.743,342.120 64.490 C 340.815 65.201,330.601 64.937,329.583 64.167 C 329.492 64.098,329.235 63.985,329.013 63.917 C 328.564 63.779,328.375 63.644,327.605 62.917 C 326.468 61.841,326.192 60.233,326.898 58.792 L 327.286 58.000 326.898 57.208 C 325.593 54.544,327.448 52.108,331.417 51.273 C 333.155 50.907,340.277 50.902,341.503 51.266 M361.305 51.257 C 365.112 52.387,363.780 55.287,359.375 55.460 L 357.333 55.540 357.333 59.278 C 357.333 64.176,356.941 64.833,354.012 64.833 C 351.132 64.833,350.833 64.322,350.833 59.394 L 350.833 55.500 349.102 55.500 C 344.650 55.500,342.838 52.591,346.501 51.327 C 347.766 50.890,359.879 50.833,361.305 51.257 M377.028 51.615 C 377.471 51.856,377.833 52.111,377.833 52.181 C 377.833 52.252,377.930 52.409,378.047 52.530 C 378.165 52.651,378.444 53.012,378.668 53.333 C 378.891 53.654,379.134 53.992,379.206 54.083 C 380.297 55.463,384.500 61.228,384.500 61.343 C 384.500 61.429,384.556 61.500,384.625 61.501 C 384.793 61.502,385.333 62.467,385.333 62.766 C 385.333 63.882,383.743 64.833,381.877 64.833 C 380.075 64.833,379.712 64.610,378.160 62.542 L 377.253 61.333 374.918 61.337 L 372.583 61.341 372.000 62.174 C 370.391 64.470,369.860 64.833,368.107 64.833 C 366.267 64.833,365.009 64.174,364.730 63.064 C 364.580 62.466,364.804 62.064,366.757 59.427 C 367.712 58.138,369.293 55.996,370.271 54.667 C 373.083 50.844,374.465 50.219,377.028 51.615 M315.000 55.667 C 315.000 55.759,315.444 55.833,316.000 55.833 C 316.556 55.833,317.000 55.759,317.000 55.667 C 317.000 55.574,316.556 55.500,316.000 55.500 C 315.444 55.500,315.000 55.574,315.000 55.667 M315.000 60.333 C 315.000 60.435,315.750 60.500,316.917 60.500 C 318.083 60.500,318.833 60.435,318.833 60.333 C 318.833 60.232,318.083 60.167,316.917 60.167 C 315.750 60.167,315.000 60.232,315.000 60.333 M266.995 79.893 C 265.094 80.303,263.413 81.692,262.459 83.642 L 261.917 84.750 261.917 105.917 C 261.917 128.535,261.876 127.378,262.727 129.167 C 264.646 133.203,269.842 134.979,273.898 132.986 C 278.116 130.913,278.833 128.912,278.833 119.208 L 278.833 113.167 281.625 113.154 C 283.160 113.148,284.792 113.078,285.250 113.000 C 286.593 112.771,287.738 112.476,287.908 112.316 C 287.995 112.234,288.173 112.167,288.303 112.167 C 288.786 112.167,291.443 110.771,292.583 109.918 C 296.662 106.867,299.333 101.522,299.333 96.414 C 299.333 94.744,298.605 90.987,298.170 90.417 C 298.101 90.325,297.954 89.973,297.845 89.635 C 297.584 88.824,296.043 86.381,295.229 85.489 C 294.874 85.100,294.433 84.617,294.250 84.417 C 293.738 83.858,291.566 82.224,291.002 81.974 C 290.726 81.852,290.500 81.695,290.500 81.626 C 290.500 81.557,290.406 81.500,290.292 81.499 C 290.177 81.498,289.858 81.378,289.583 81.232 C 288.577 80.695,286.128 80.014,284.591 79.843 C 282.366 79.595,268.192 79.635,266.995 79.893 M123.833 82.912 C 124.429 83.369,124.954 83.786,125.000 83.838 C 125.046 83.890,125.346 84.115,125.667 84.337 C 126.594 84.979,126.932 85.335,126.740 85.466 C 126.645 85.530,126.387 85.846,126.167 86.167 C 125.946 86.487,125.721 86.787,125.665 86.833 C 125.609 86.879,124.710 88.042,123.667 89.417 C 122.623 90.792,121.724 91.954,121.668 92.000 C 121.613 92.046,121.387 92.346,121.167 92.667 C 120.946 92.987,120.720 93.287,120.664 93.333 C 120.607 93.379,120.232 93.857,119.829 94.395 C 118.828 95.732,118.817 95.515,119.672 91.250 C 119.764 90.792,119.911 89.967,119.998 89.417 C 120.166 88.360,120.498 86.457,120.936 84.042 C 121.081 83.240,121.236 82.358,121.279 82.083 C 121.452 80.987,121.227 80.915,123.833 82.912 M154.917 96.435 C 151.407 96.934,148.422 99.780,147.834 103.187 C 147.709 103.911,147.666 107.920,147.700 115.750 L 147.750 127.250 148.150 128.333 C 148.369 128.929,148.613 129.442,148.691 129.472 C 148.769 129.503,148.833 129.603,148.833 129.696 C 148.833 130.807,152.117 133.179,154.300 133.645 C 155.502 133.901,173.296 133.907,174.533 133.651 C 177.848 132.965,180.348 130.395,181.063 126.936 C 181.462 125.011,181.467 105.410,181.070 103.310 C 179.344 94.182,166.535 94.136,164.448 103.250 C 164.391 103.501,164.367 103.473,164.353 103.133 C 164.282 101.483,162.323 98.687,160.487 97.614 C 158.932 96.706,156.554 96.203,154.917 96.435 M189.500 96.432 C 186.258 97.004,183.683 99.170,182.682 102.167 C 182.322 103.245,182.320 103.308,182.368 115.500 C 182.421 128.901,182.333 127.620,183.334 129.494 C 185.887 134.274,192.778 135.287,196.554 131.437 C 198.885 129.060,199.158 127.956,199.163 120.883 L 199.167 116.183 206.292 116.128 C 212.868 116.078,213.474 116.049,214.167 115.754 C 221.719 112.539,221.514 102.676,213.833 99.714 C 213.167 99.457,212.195 99.419,205.109 99.370 L 197.134 99.315 196.775 98.943 C 195.033 97.136,191.811 96.024,189.500 96.432 M229.750 99.985 C 223.036 101.317,220.780 109.455,225.713 114.549 C 227.041 115.922,230.250 119.373,230.362 119.550 C 230.450 119.689,229.613 120.928,229.156 121.333 C 229.104 121.379,228.551 122.092,227.927 122.917 C 227.302 123.742,226.741 124.454,226.679 124.500 C 226.618 124.546,226.385 124.846,226.163 125.167 C 225.941 125.487,225.627 125.894,225.466 126.069 C 225.305 126.245,224.966 126.695,224.712 127.069 C 224.459 127.444,224.213 127.787,224.167 127.833 C 223.542 128.455,223.003 130.541,223.006 132.333 C 223.018 140.690,233.339 143.743,238.502 136.917 C 239.356 135.788,241.090 133.570,241.173 133.500 C 241.228 133.454,242.013 132.442,242.919 131.250 C 243.825 130.058,244.612 129.046,244.668 129.000 C 244.724 128.954,245.398 128.092,246.167 127.083 C 246.935 126.075,247.607 125.212,247.661 125.167 C 247.714 125.121,249.068 123.396,250.669 121.333 C 252.270 119.271,253.750 117.397,253.957 117.168 C 254.164 116.940,254.333 116.699,254.333 116.633 C 254.333 116.567,254.468 116.379,254.632 116.215 C 257.884 112.973,259.509 108.035,258.197 105.382 C 258.116 105.218,257.870 104.717,257.650 104.268 C 255.300 99.475,248.368 98.295,244.467 102.024 C 243.953 102.515,243.135 103.442,242.649 104.083 C 242.163 104.725,241.594 105.435,241.385 105.662 L 241.006 106.074 238.739 103.704 C 237.492 102.400,236.372 101.333,236.250 101.333 C 236.128 101.333,236.003 101.258,235.972 101.165 C 235.717 100.401,231.596 99.619,229.750 99.985 M45.772 105.853 C 45.640 106.530,45.371 108.021,45.176 109.167 C 44.980 110.313,44.749 111.625,44.663 112.083 C 44.576 112.542,44.394 113.554,44.258 114.333 C 43.825 116.822,43.458 118.748,43.404 118.810 C 43.360 118.862,41.235 117.283,40.254 116.470 C 40.069 116.316,39.492 115.863,38.974 115.463 L 38.031 114.736 39.436 112.910 C 40.209 111.905,40.935 110.971,41.049 110.833 C 41.163 110.696,42.114 109.458,43.161 108.083 C 46.375 103.864,46.117 104.084,45.772 105.853 " stroke="none" fill="#040404" fill-rule="evenodd"></path><path id="path1" d="" stroke="none" fill="#080404" fill-rule="evenodd"></path><path id="path2" d="" stroke="none" fill="#080404" fill-rule="evenodd"></path><path id="path3" d="" stroke="none" fill="#080404" fill-rule="evenodd"></path><path id="path4" d="" stroke="none" fill="#080404" fill-rule="evenodd"></path></g></svg>